<svg id="aliado_octopus" xmlns="http://www.w3.org/2000/svg" xmlns:xlink="http://www.w3.org/1999/xlink" width="409.737" height="165" viewBox="0 0 409.737 165">
  <defs>
    <clipPath id="clip-path">
      <rect id="Rectángulo_3332" data-name="Rectángulo 3332" width="409.737" height="165" fill="#fff"/>
    </clipPath>
  </defs>
  <g id="Grupo_21347" data-name="Grupo 21347" clip-path="url(#clip-path)">
    <path id="Trazado_41150" data-name="Trazado 41150" d="M13.6,310.522l3.751,9.659H9.826l3.774-9.659m-2.75-7.458L0,331.193H5.566l2.291-5.8H19.337l2.2,5.8H27.1L16.282,303.06H10.854Z" transform="translate(0 -166.903)" fill="#fff"/>
    <path id="Trazado_41151" data-name="Trazado 41151" d="M69.53,303.07h5.355V326.1h7.8V331.2H69.53Z" transform="translate(-38.292 -166.909)" fill="#fff"/>
    <rect id="Rectángulo_3330" data-name="Rectángulo 3330" width="5.315" height="28.133" transform="translate(48.086 136.161)" fill="#fff"/>
    <path id="Trazado_41152" data-name="Trazado 41152" d="M138.074,303.07h5.432L154.325,331.2h-5.566l-2.2-5.8H135.078l-2.291,5.8H127.22l10.85-28.133Zm2.745,7.458-3.774,9.659h7.525Z" transform="translate(-70.063 -166.909)" fill="#fff"/>
    <path id="Trazado_41153" data-name="Trazado 41153" d="M196.81,303.065h6.344q6.133,0,9.116,1.523a11.9,11.9,0,0,1,4.911,4.942,17.327,17.327,0,0,1,.854,13.968,12.374,12.374,0,0,1-2.983,4.524,10.517,10.517,0,0,1-4.115,2.484,29.377,29.377,0,0,1-7.683.687h-6.438V303.06Zm5.315,5.162v17.746h2.484a12.471,12.471,0,0,0,5.328-.84,6.38,6.38,0,0,0,2.7-2.835,10.393,10.393,0,0,0,1.051-4.9,9.319,9.319,0,0,0-2.507-6.95q-2.258-2.217-7.247-2.219Z" transform="translate(-108.389 -166.903)" fill="#fff"/>
    <path id="Trazado_41154" data-name="Trazado 41154" d="M269.362,301.49a13.97,13.97,0,0,1,10.266,4.322,14.371,14.371,0,0,1,4.3,10.54,14.143,14.143,0,0,1-4.241,10.423,13.956,13.956,0,0,1-10.284,4.264,14.26,14.26,0,0,1-10.526-4.38,14.783,14.783,0,0,1,10.486-25.168m-.049,5.243a8.837,8.837,0,0,0-6.568,2.714,9.452,9.452,0,0,0-2.66,6.905,8.989,8.989,0,0,0,3.352,7.382,9.179,9.179,0,0,0,5.971,2.125,8.741,8.741,0,0,0,6.492-2.754,9.919,9.919,0,0,0-.018-13.586,8.808,8.808,0,0,0-6.568-2.781" transform="translate(-140.259 -166.039)" fill="#fff"/>
    <path id="Trazado_41155" data-name="Trazado 41155" d="M355.45,303.065h6.344q6.133,0,9.116,1.523a11.9,11.9,0,0,1,4.911,4.942,17.327,17.327,0,0,1,.854,13.968,12.373,12.373,0,0,1-2.983,4.524,10.518,10.518,0,0,1-4.115,2.484,29.377,29.377,0,0,1-7.683.687h-6.438V303.06Zm5.315,5.162v17.746h2.484a12.471,12.471,0,0,0,5.328-.84,6.38,6.38,0,0,0,2.7-2.835,10.393,10.393,0,0,0,1.051-4.9,9.319,9.319,0,0,0-2.507-6.95q-2.258-2.217-7.247-2.219Z" transform="translate(-195.756 -166.903)" fill="#fff"/>
    <path id="Trazado_41156" data-name="Trazado 41156" d="M416.49,303.07h15.356v5.243H421.8v5.081h10.041v5.149H421.8v7.4h10.041V331.2H416.49Z" transform="translate(-229.372 -166.909)" fill="#fff"/>
    <path id="Trazado_41157" data-name="Trazado 41157" d="M486.21,303.07h5.14l12.036,18.515V303.07h5.355V331.2h-5.153l-12.023-18.456V331.2H486.21Z" transform="translate(-267.769 -166.909)" fill="#fff"/>
    <path id="Trazado_41158" data-name="Trazado 41158" d="M550.7,303.07h15.356v5.243H556.015v5.081h10.041v5.149H556.015v7.4h10.041V331.2H550.7Z" transform="translate(-303.285 -166.909)" fill="#fff"/>
    <path id="Trazado_41159" data-name="Trazado 41159" d="M620.416,306.8l-3.769,3.729a11.142,11.142,0,0,0-8.343-3.787,9.536,9.536,0,0,0-6.959,2.754,9.025,9.025,0,0,0-2.8,6.694,9.4,9.4,0,0,0,2.911,6.905,9.9,9.9,0,0,0,7.179,2.83,8.815,8.815,0,0,0,4.681-1.168,8.218,8.218,0,0,0,3.073-3.653h-8.145V316.07h14.152l.04,1.186a13.763,13.763,0,0,1-1.914,7,13.373,13.373,0,0,1-4.951,5.05,14.13,14.13,0,0,1-7.134,1.739,15.866,15.866,0,0,1-7.813-1.9,13.943,13.943,0,0,1-5.432-5.423,15.105,15.105,0,0,1-2-7.593,14.107,14.107,0,0,1,3.693-9.713,14.552,14.552,0,0,1,11.4-4.915,17.4,17.4,0,0,1,6.865,1.357,15.8,15.8,0,0,1,5.279,3.94" transform="translate(-326.686 -166.044)" fill="#fff"/>
    <path id="Trazado_41160" data-name="Trazado 41160" d="M680.778,301.49a13.97,13.97,0,0,1,10.266,4.322,14.371,14.371,0,0,1,4.3,10.54,14.156,14.156,0,0,1-4.237,10.423,13.957,13.957,0,0,1-10.284,4.264,14.26,14.26,0,0,1-10.526-4.38,14.783,14.783,0,0,1,10.486-25.168m-.058,5.243a8.837,8.837,0,0,0-6.568,2.714,9.452,9.452,0,0,0-2.66,6.905,8.989,8.989,0,0,0,3.352,7.382,9.178,9.178,0,0,0,5.971,2.125,8.741,8.741,0,0,0,6.492-2.754,9.919,9.919,0,0,0-.018-13.586,8.807,8.807,0,0,0-6.568-2.781" transform="translate(-366.839 -166.039)" fill="#fff"/>
    <path id="Trazado_41161" data-name="Trazado 41161" d="M766.557,307.146l-3.747,3.567a11.6,11.6,0,0,0-8.6-4.039,9.429,9.429,0,0,0-9.556,9.556,10.074,10.074,0,0,0,1.222,5,8.716,8.716,0,0,0,3.459,3.423,10.011,10.011,0,0,0,4.969,1.244,10.241,10.241,0,0,0,4.259-.872,15.245,15.245,0,0,0,4.241-3.167l3.63,3.787a19.993,19.993,0,0,1-5.89,4.219,16.035,16.035,0,0,1-6.33,1.177,14.577,14.577,0,0,1-10.738-4.16,14.4,14.4,0,0,1-4.178-10.661,14.6,14.6,0,0,1,1.9-7.476,14.189,14.189,0,0,1,5.45-5.261,15.384,15.384,0,0,1,7.642-1.99,16.213,16.213,0,0,1,12.261,5.652" transform="translate(-407.152 -166.039)" fill="#fff"/>
    <rect id="Rectángulo_3331" data-name="Rectángulo 3331" width="5.315" height="28.133" transform="translate(363.709 136.161)" fill="#fff"/>
    <path id="Trazado_41162" data-name="Trazado 41162" d="M846.352,301.49a13.97,13.97,0,0,1,10.266,4.322,14.371,14.371,0,0,1,4.3,10.54,14.143,14.143,0,0,1-4.241,10.423,13.956,13.956,0,0,1-10.284,4.264,14.26,14.26,0,0,1-10.526-4.38,14.783,14.783,0,0,1,10.486-25.168m-.054,5.243a8.837,8.837,0,0,0-6.568,2.714,9.452,9.452,0,0,0-2.66,6.905,8.989,8.989,0,0,0,3.352,7.382,9.178,9.178,0,0,0,5.971,2.125,8.742,8.742,0,0,0,6.492-2.754,9.919,9.919,0,0,0-.018-13.586,8.807,8.807,0,0,0-6.568-2.781" transform="translate(-458.023 -166.039)" fill="#fff"/>
    <path id="Trazado_41163" data-name="Trazado 41163" d="M907.137,304.922a1.984,1.984,0,1,1-1.977-1.932,1.938,1.938,0,0,1,1.977,1.932m-3.473,0a1.5,1.5,0,0,0,1.51,1.541,1.466,1.466,0,0,0,1.474-1.532,1.49,1.49,0,1,0-2.979-.013m1.182,1.015H904.4V304a3.841,3.841,0,0,1,.741-.058,1.241,1.241,0,0,1,.674.139.524.524,0,0,1,.189.422.5.5,0,0,1-.4.449v.022a.571.571,0,0,1,.355.472,1.562,1.562,0,0,0,.139.485h-.481a1.666,1.666,0,0,1-.153-.472c-.036-.211-.153-.306-.4-.306h-.211v.777Zm.013-1.092h.211c.247,0,.449-.081.449-.283,0-.175-.13-.3-.413-.3a1.268,1.268,0,0,0-.247.022v.557Z" transform="translate(-497.4 -166.865)" fill="#fff"/>
    <path id="Trazado_41164" data-name="Trazado 41164" d="M484.648,93.25a24.67,24.67,0,1,0,24.818,24.67,24.742,24.742,0,0,0-24.818-24.67m0,39.833c-8.042,0-14.561-6.789-14.561-15.163s6.519-15.163,14.561-15.163,14.561,6.789,14.561,15.163-6.519,15.163-14.561,15.163" transform="translate(-253.241 -51.355)" fill="#fff"/>
    <path id="Trazado_41165" data-name="Trazado 41165" d="M332.445,133.846l-6.91-6.928a14.363,14.363,0,0,1-11.717,6.164c-8.042,0-14.561-6.789-14.561-15.163s6.519-15.163,14.561-15.163a14.335,14.335,0,0,1,11.492,5.854l6.977-7.166a24.67,24.67,0,1,0,.427,32.46c-.171-.04-.27-.058-.27-.058" transform="translate(-159.16 -51.355)" fill="#fff"/>
    <path id="Trazado_41166" data-name="Trazado 41166" d="M420.835,89.419v-9.34H408.224V67.27H397.347V80.079H391.61v9.34h5.737v27.154s-.067,6.806,5.2,9.206,12.809,2.871,18.281-.332v-8.473s-4.8,2.067-8.271,1.2-4.335-3.4-4.335-7.939V89.419h12.611" transform="translate(-215.67 -37.047)" fill="#fff"/>
    <path id="Trazado_41167" data-name="Trazado 41167" d="M608.776,93.244a20.754,20.754,0,0,0-16.628,8.792V94.143H581.64V155.59h10.508v-21.8a20.761,20.761,0,0,0,16.628,8.792c12,0,21.731-11.043,21.731-24.67s-9.731-24.67-21.731-24.67m-2.97,39.837c-7.543,0-13.662-6.789-13.662-15.163s6.115-15.163,13.662-15.163,13.662,6.789,13.662,15.163-6.115,15.163-13.662,15.163" transform="translate(-320.325 -51.35)" fill="#fff"/>
    <path id="Trazado_41168" data-name="Trazado 41168" d="M733.052,135.877a17.159,17.159,0,0,1-14.709,8.24A16.713,16.713,0,0,1,701.63,127.4V96.08H712.1v27.954a10.544,10.544,0,1,0,21.089,0V96.08H744v47.034h-10.94v-7.238Z" transform="translate(-386.407 -52.914)" fill="#fff"/>
    <path id="Trazado_41169" data-name="Trazado 41169" d="M843.045,125.442c-.8-2.8-2.4-7.507-15.06-11.308a48.549,48.549,0,0,1-7.256-2.952,4.513,4.513,0,0,1-2.476-4.749c.9-3.37,5.122-3.882,5.122-3.882,3.832-.346,9.484.917,14.669,4.524l4.151-7.8s-8.356-4.9-18.065-4.9-15.711,7.754-15.612,13.11,1.051,11.708,12.611,14.512,13.712,5.854,12.009,9.206-5.054,3.154-8.055,3.154S816.875,133,810.724,128.8l-4.654,7.107s7.157,7.256,22.567,6.806,15.212-14.462,14.413-17.261" transform="translate(-443.925 -51.972)" fill="#fff"/>
    <path id="Trazado_41170" data-name="Trazado 41170" d="M150.437,99.442A51.411,51.411,0,0,1,97.4,89.922a39.924,39.924,0,0,0,11.47-5.49,40.33,40.33,0,0,0,12.553-14.085,39.149,39.149,0,0,0,3.37-8.532,40.058,40.058,0,0,0-38.7-50.377A40.192,40.192,0,0,0,74.5,13.155a40.033,40.033,0,0,0-23.744,57.2A40.3,40.3,0,0,0,63.12,84.3,39.687,39.687,0,0,0,74.5,89.837,51.439,51.439,0,0,1,21.63,99.545l9.093-9.116a40.353,40.353,0,0,0,9.435,1.119,39.668,39.668,0,0,0,11.591-1.716A51.482,51.482,0,0,1,86.083,0a51.372,51.372,0,0,1,34.244,13.074,51.414,51.414,0,0,1,0,76.848,40.078,40.078,0,0,0,21.048.431l9.062,9.084Z" transform="translate(-11.912)" fill="#fff"/>
  </g>
</svg>
