<svg xmlns="http://www.w3.org/2000/svg" xmlns:xlink="http://www.w3.org/1999/xlink" width="44.694" height="44.694" viewBox="0 0 44.694 44.694">
  <defs>
    <clipPath id="clip-path">
      <rect id="Rectángulo_3334" data-name="Rectángulo 3334" width="27.132" height="27.132" fill="none"/>
    </clipPath>
  </defs>
  <g id="insta" transform="translate(-3954 -6085)">
    <circle id="Elipse_476" data-name="Elipse 476" cx="22.347" cy="22.347" r="22.347" transform="translate(3954 6085)" fill="#4c3094"/>
    <g id="Grupo_21352" data-name="Grupo 21352" transform="translate(3963 6094)">
      <g id="Grupo_21352-2" data-name="Grupo 21352" clip-path="url(#clip-path)">
        <path id="Trazado_41174" data-name="Trazado 41174" d="M20.582,0H6.548A6.55,6.55,0,0,0,0,6.549V20.583a6.55,6.55,0,0,0,6.549,6.549H20.582a6.55,6.55,0,0,0,6.549-6.549V6.549A6.55,6.55,0,0,0,20.582,0m4.21,20.115a4.68,4.68,0,0,1-4.678,4.678H7.016a4.68,4.68,0,0,1-4.678-4.678V7.017A4.68,4.68,0,0,1,7.016,2.339h13.1a4.68,4.68,0,0,1,4.678,4.678Z" transform="translate(0.001 0)" fill="#fff"/>
        <path id="Trazado_41175" data-name="Trazado 41175" d="M57.429,50.31a7.017,7.017,0,1,0,7.017,7.017,7.019,7.019,0,0,0-7.017-7.017m0,11.721a4.691,4.691,0,1,1,4.678-4.691,4.692,4.692,0,0,1-4.678,4.691" transform="translate(-43.85 -43.761)" fill="#fff"/>
        <path id="Trazado_41176" data-name="Trazado 41176" d="M152.434,38.743a1.4,1.4,0,1,1,1.4-1.4,1.405,1.405,0,0,1-1.4,1.4" transform="translate(-131.371 -31.258)" fill="#fff"/>
      </g>
    </g>
  </g>
</svg>
